<svg width="639" height="596" viewBox="0 0 639 596" fill="none" xmlns="http://www.w3.org/2000/svg">
<rect width="639" height="596" fill="#F5F5F5"/>
<g clip-path="url(#clip0_0_1)">
<rect width="639" height="596" fill="white"/>
<rect x="24" y="12" width="603" height="516" fill="#D9D9D9"/>
<path d="M317.586 60.6128C320.99 54.3274 330.01 54.3274 333.414 60.6128L554.297 468.464C557.544 474.461 553.202 481.75 546.383 481.75H104.617C97.7978 481.75 93.4558 474.461 96.7035 468.464L317.586 60.6128Z" fill="#FF0000"/>
<path d="M325 83L523.32 458.75H126.68L325 83Z" fill="#FFE500"/>
<rect x="312" y="165" width="27" height="265" fill="black"/>
<rect x="301" y="151" width="11" height="293" fill="white"/>
<rect x="339" y="151" width="11" height="293" fill="white"/>
<path d="M173.304 566.896C173.472 566.416 173.64 565.948 173.808 565.492C174 565.012 174.18 564.532 174.348 564.052C174.468 563.692 174.624 563.332 174.816 562.972C175.008 562.612 175.176 562.288 175.32 562C175.44 561.592 175.56 561.268 175.68 561.028C175.824 560.764 175.908 560.596 175.932 560.524C175.932 560.476 175.98 560.356 176.076 560.164C176.196 559.972 176.328 559.66 176.472 559.228C176.544 559.012 176.604 558.784 176.652 558.544C176.724 558.304 176.808 558.076 176.904 557.86L177.768 555.772C177.864 555.508 177.924 555.316 177.948 555.196C177.996 555.052 178.032 554.932 178.056 554.836C178.08 554.74 178.104 554.632 178.128 554.512C178.152 554.392 178.224 554.2 178.344 553.936C178.464 553.672 178.56 553.42 178.632 553.18C178.728 552.94 178.836 552.688 178.956 552.424C179.004 552.28 179.052 552.136 179.1 551.992C179.148 551.848 179.196 551.704 179.244 551.56C179.316 551.368 179.376 551.2 179.424 551.056C179.472 550.912 179.52 550.744 179.568 550.552C179.616 550.504 179.652 550.444 179.676 550.372C179.7 550.276 179.748 550.168 179.82 550.048C179.964 549.952 180.084 549.904 180.18 549.904C180.276 549.88 180.372 549.868 180.468 549.868H182.124C182.172 549.964 182.196 550.06 182.196 550.156C182.196 550.228 182.22 550.312 182.268 550.408L182.412 550.948L182.52 551.236L182.916 552.352L183.564 554.188L183.816 554.656C183.864 554.704 183.912 554.812 183.96 554.98C184.008 555.124 184.08 555.316 184.176 555.556C184.296 555.868 184.416 556.228 184.536 556.636C184.68 557.02 184.812 557.404 184.932 557.788C185.1 558.388 185.232 558.832 185.328 559.12C185.448 559.408 185.568 559.708 185.688 560.02C185.76 560.116 185.808 560.224 185.832 560.344C185.856 560.464 185.892 560.584 185.94 560.704L186.408 562.18L187.02 563.476C187.092 563.692 187.164 563.908 187.236 564.124C187.332 564.316 187.44 564.508 187.56 564.7C187.752 565.18 187.908 565.624 188.028 566.032C188.148 566.416 188.304 566.848 188.496 567.328C188.592 567.544 188.688 567.748 188.784 567.94C188.904 568.132 189 568.336 189.072 568.552C189.12 568.672 189.168 568.792 189.216 568.912C189.264 569.032 189.312 569.152 189.36 569.272C189.48 569.488 189.576 569.716 189.648 569.956C189.744 570.172 189.852 570.412 189.972 570.676C190.02 570.82 190.08 570.964 190.152 571.108C190.224 571.252 190.272 571.384 190.296 571.504C190.176 571.504 190.056 571.492 189.936 571.468C189.816 571.444 189.708 571.432 189.612 571.432H189C188.784 571.432 188.592 571.432 188.424 571.432C188.256 571.456 188.112 571.468 187.992 571.468C187.872 571.18 187.692 570.904 187.452 570.64C187.236 570.352 187.008 570.004 186.768 569.596C186.72 569.476 186.672 569.368 186.624 569.272C186.576 569.176 186.528 569.08 186.48 568.984C186.432 568.84 186.288 568.636 186.048 568.372C185.832 568.108 185.712 567.904 185.688 567.76C185.496 567.544 185.352 567.376 185.256 567.256C185.184 567.112 185.088 566.98 184.968 566.86C184.872 566.86 184.752 566.86 184.608 566.86C184.464 566.836 184.332 566.812 184.212 566.788C184.068 566.764 183.912 566.752 183.744 566.752H182.88C182.76 566.752 182.628 566.764 182.484 566.788C182.364 566.788 182.172 566.8 181.908 566.824C181.644 566.824 181.284 566.836 180.828 566.86C180.372 566.86 179.76 566.86 178.992 566.86H178.74C178.548 566.86 178.392 566.884 178.272 566.932C178.176 566.956 178.032 566.932 177.84 566.86C177.768 566.812 177.588 566.8 177.3 566.824C177.036 566.848 176.856 566.872 176.76 566.896L176.292 566.932L176.112 567.184C176.064 567.328 175.98 567.496 175.86 567.688C175.74 567.88 175.62 568.072 175.5 568.264C175.38 568.456 175.26 568.648 175.14 568.84C175.044 569.032 174.972 569.188 174.924 569.308L174.672 569.956L173.772 571.612C173.724 571.708 173.652 571.756 173.556 571.756C173.46 571.756 173.388 571.78 173.34 571.828H171.504C171.408 571.732 171.36 571.672 171.36 571.648C171.36 571.624 171.408 571.552 171.504 571.432C171.504 571.336 171.54 571.192 171.612 571C171.684 570.832 171.72 570.7 171.72 570.604C171.84 570.412 171.936 570.22 172.008 570.028C172.104 569.812 172.2 569.608 172.296 569.416L173.304 566.896ZM180.864 557.968C180.744 558.016 180.66 558.076 180.612 558.148C180.564 558.22 180.516 558.304 180.468 558.4C180.372 558.736 180.24 559.072 180.072 559.408C179.928 559.72 179.784 560.044 179.64 560.38C179.52 560.62 179.4 560.848 179.28 561.064C179.16 561.256 179.052 561.472 178.956 561.712C178.74 562.192 178.524 562.672 178.308 563.152C178.092 563.608 177.852 564.064 177.588 564.52H177.804C177.996 564.52 178.164 564.532 178.308 564.556C178.476 564.58 178.644 564.568 178.812 564.52C178.956 564.472 179.088 564.46 179.208 564.484C179.352 564.508 179.484 564.52 179.604 564.52C180.012 564.52 180.432 564.52 180.864 564.52C181.296 564.496 181.776 564.508 182.304 564.556C182.568 564.58 182.808 564.58 183.024 564.556C183.264 564.532 183.504 564.52 183.744 564.52H184.068C184.044 564.424 184.008 564.352 183.96 564.304C183.936 564.232 183.9 564.16 183.852 564.088C183.756 563.896 183.648 563.728 183.528 563.584C183.432 563.44 183.348 563.26 183.276 563.044L182.016 560.524C181.968 560.404 181.92 560.248 181.872 560.056L180.864 557.968ZM202.172 558.364C202.196 557.788 202.244 557.116 202.316 556.348C202.388 555.556 202.46 554.872 202.532 554.296C202.484 553.936 202.484 553.576 202.532 553.216C202.58 552.832 202.592 552.46 202.568 552.1C202.568 551.956 202.568 551.812 202.568 551.668C202.592 551.5 202.604 551.344 202.604 551.2C202.724 550.624 202.784 550.036 202.784 549.436C202.784 548.836 202.844 548.176 202.964 547.456V547.024C203.444 547.144 203.888 547.252 204.296 547.348C204.728 547.42 205.172 547.456 205.628 547.456C205.508 547.816 205.436 548.176 205.412 548.536C205.388 548.896 205.376 549.244 205.376 549.58C205.376 550.276 205.34 550.972 205.268 551.668C205.22 552.34 205.196 553.024 205.196 553.72C205.196 553.864 205.184 554.02 205.16 554.188C205.136 554.332 205.124 554.476 205.124 554.62C205.148 554.812 205.148 555.052 205.124 555.34C205.124 555.628 205.124 555.928 205.124 556.24C205.124 556.552 205.124 556.852 205.124 557.14C205.148 557.428 205.184 557.668 205.232 557.86C205.16 558.436 205.136 559.024 205.16 559.624C205.208 560.2 205.22 560.776 205.196 561.352C205.148 561.76 205.136 562.156 205.16 562.54C205.184 562.9 205.196 563.284 205.196 563.692C205.196 564.1 205.196 564.508 205.196 564.916C205.22 565.324 205.232 565.732 205.232 566.14C205.232 566.548 205.196 567.04 205.124 567.616C205.052 568.168 205.028 568.648 205.052 569.056C205.052 569.632 205.028 570.136 204.98 570.568C204.956 571 204.944 571.456 204.944 571.936C204.944 572.152 204.884 572.284 204.764 572.332C204.644 572.404 204.452 572.44 204.188 572.44C203.852 572.488 203.552 572.5 203.288 572.476C203.024 572.452 202.724 572.44 202.388 572.44C202.148 572.44 202.004 572.392 201.956 572.296C201.932 572.2 201.92 572.104 201.92 572.008V571.36C201.896 571.336 201.872 571.3 201.848 571.252C201.824 571.204 201.8 571.168 201.776 571.144C201.752 571.144 201.728 571.132 201.704 571.108C201.584 571.228 201.416 571.312 201.2 571.36C200.984 571.408 200.768 571.492 200.552 571.612C200.192 571.852 199.784 572.02 199.328 572.116C198.896 572.212 198.44 572.26 197.96 572.26C197.624 572.26 197.324 572.248 197.06 572.224C196.82 572.224 196.592 572.176 196.376 572.08C196.256 572.08 196.172 572.032 196.124 571.936C196.1 571.864 196.028 571.828 195.908 571.828C195.428 571.588 195.008 571.336 194.648 571.072C194.288 570.832 193.94 570.544 193.604 570.208C193.244 569.848 192.968 569.488 192.776 569.128C192.608 568.768 192.404 568.348 192.164 567.868C192.068 567.532 191.996 567.196 191.948 566.86C191.924 566.5 191.852 566.152 191.732 565.816C191.732 565.336 191.744 564.88 191.768 564.448C191.816 563.992 191.948 563.596 192.164 563.26C192.284 562.66 192.512 562.132 192.848 561.676C193.184 561.22 193.58 560.824 194.036 560.488C194.276 560.248 194.552 560.056 194.864 559.912C195.2 559.768 195.548 559.636 195.908 559.516C196.148 559.516 196.412 559.516 196.7 559.516C197.012 559.492 197.288 559.42 197.528 559.3C197.864 559.3 198.164 559.312 198.428 559.336C198.716 559.336 199.04 559.396 199.4 559.516C199.496 559.636 199.64 559.72 199.832 559.768C200.024 559.816 200.18 559.9 200.3 560.02C200.516 560.14 200.744 560.26 200.984 560.38C201.224 560.476 201.464 560.572 201.704 560.668C201.824 560.572 201.884 560.428 201.884 560.236C201.884 560.02 201.944 559.78 202.064 559.516C202.064 559.396 202.076 559.24 202.1 559.048C202.148 558.856 202.172 558.628 202.172 558.364ZM197.96 562.792C197.504 563.032 197.156 563.404 196.916 563.908C196.7 564.388 196.592 564.856 196.592 565.312C196.592 565.576 196.628 565.78 196.7 565.924C196.772 566.068 196.808 566.248 196.808 566.464C196.808 566.824 196.916 567.124 197.132 567.364C197.348 567.604 197.624 567.856 197.96 568.12C198.248 568.36 198.644 568.36 199.148 568.12C199.364 567.856 199.604 567.604 199.868 567.364C200.156 567.1 200.3 566.74 200.3 566.284C200.42 565.804 200.444 565.384 200.372 565.024C200.3 564.664 200.204 564.304 200.084 563.944C199.964 563.608 199.748 563.332 199.436 563.116C199.124 562.9 198.788 562.792 198.428 562.792H197.96ZM211.651 567.868C211.699 568.348 211.711 568.78 211.687 569.164C211.663 569.548 211.627 569.908 211.579 570.244C211.579 570.388 211.543 570.496 211.471 570.568C211.231 570.616 210.955 570.664 210.643 570.712C210.331 570.736 210.043 570.736 209.779 570.712C209.563 570.688 209.347 570.7 209.131 570.748C208.915 570.772 208.759 570.784 208.663 570.784C208.663 570.64 208.651 570.508 208.627 570.388C208.603 570.268 208.603 570.1 208.627 569.884C208.651 569.692 208.651 569.488 208.627 569.272C208.627 569.056 208.627 568.852 208.627 568.66V566.896C208.603 566.344 208.591 565.78 208.591 565.204C208.591 564.628 208.579 564.244 208.555 564.052C208.531 563.836 208.531 563.62 208.555 563.404C208.603 563.188 208.627 562.972 208.627 562.756C208.603 562.42 208.591 562.084 208.591 561.748C208.615 561.388 208.627 561.04 208.627 560.704C208.627 560.416 208.615 560.044 208.591 559.588C208.567 559.108 208.579 558.724 208.627 558.436C208.819 558.388 209.059 558.364 209.347 558.364C209.635 558.364 209.947 558.352 210.283 558.328C210.547 558.304 210.811 558.292 211.075 558.292C211.339 558.292 211.531 558.292 211.651 558.292C211.699 558.292 211.711 558.364 211.687 558.508C211.687 558.628 211.687 558.712 211.687 558.76C211.663 559.36 211.663 559.888 211.687 560.344C211.711 560.776 211.699 561.232 211.651 561.712C211.675 562.192 211.675 562.612 211.651 562.972C211.651 563.308 211.627 563.716 211.579 564.196C211.579 564.268 211.579 564.46 211.579 564.772C211.579 565.084 211.591 565.444 211.615 565.852C211.639 566.236 211.651 566.62 211.651 567.004C211.651 567.364 211.651 567.652 211.651 567.868ZM208.591 555.988C208.567 555.868 208.555 555.688 208.555 555.448C208.579 555.208 208.591 554.956 208.591 554.692C208.591 554.572 208.579 554.464 208.555 554.368C208.555 554.272 208.555 554.176 208.555 554.08C208.555 554.032 208.555 553.996 208.555 553.972C208.579 553.948 208.591 553.912 208.591 553.864H211.183C211.303 553.864 211.375 553.876 211.399 553.9C211.423 553.9 211.435 553.96 211.435 554.08V556.42C211.291 556.444 211.063 556.456 210.751 556.456C210.463 556.456 210.163 556.456 209.851 556.456C209.539 556.456 209.251 556.456 208.987 556.456C208.747 556.432 208.627 556.396 208.627 556.348C208.603 556.276 208.591 556.156 208.591 555.988ZM221.603 561.28C221.315 561.328 221.051 561.4 220.811 561.496C220.571 561.592 220.343 561.772 220.127 562.036C219.791 562.372 219.551 562.756 219.407 563.188C219.287 563.62 219.227 564.112 219.227 564.664V565.564C219.347 565.804 219.431 566.068 219.479 566.356C219.527 566.644 219.671 566.896 219.911 567.112C220.031 567.328 220.187 567.544 220.379 567.76C220.571 567.976 220.763 568.216 220.955 568.48C221.075 568.552 221.231 568.612 221.423 568.66C221.615 568.684 221.771 568.756 221.891 568.876C222.203 568.996 222.563 569.068 222.971 569.092C223.379 569.092 223.751 569.092 224.087 569.092C224.255 569.068 224.423 569.032 224.591 568.984C224.759 568.912 225.023 568.876 225.383 568.876C225.503 568.828 225.599 568.876 225.671 569.02C225.743 569.14 225.815 569.296 225.887 569.488C225.959 569.608 226.031 569.764 226.103 569.956C226.175 570.124 226.235 570.28 226.283 570.424C226.331 570.52 226.379 570.616 226.427 570.712C226.499 570.784 226.535 570.892 226.535 571.036C226.487 571.06 226.427 571.096 226.355 571.144C226.283 571.216 226.199 571.276 226.103 571.324C226.055 571.444 225.947 571.516 225.779 571.54C225.611 571.588 225.479 571.66 225.383 571.756C224.519 572.188 223.643 572.404 222.755 572.404C222.539 572.404 222.335 572.404 222.143 572.404C221.951 572.428 221.711 572.428 221.423 572.404C221.207 572.404 220.919 572.344 220.559 572.224C220.415 572.224 220.199 572.224 219.911 572.224C219.623 572.224 219.407 572.212 219.263 572.188C219.143 572.164 219.023 572.116 218.903 572.044C218.807 571.972 218.699 571.912 218.579 571.864C218.459 571.816 218.339 571.768 218.219 571.72C218.099 571.672 217.979 571.624 217.859 571.576C217.595 571.456 217.355 571.264 217.139 571C216.947 570.76 216.731 570.532 216.491 570.316C216.275 570.124 216.035 569.872 215.771 569.56C215.531 569.224 215.387 568.948 215.339 568.732C215.243 568.468 215.111 568.18 214.943 567.868C214.799 567.556 214.715 567.232 214.691 566.896C214.643 566.752 214.619 566.632 214.619 566.536C214.619 566.44 214.619 566.344 214.619 566.248V564.664C214.619 564.112 214.631 563.62 214.655 563.188C214.703 562.732 214.835 562.288 215.051 561.856C215.171 561.616 215.279 561.352 215.375 561.064C215.495 560.776 215.675 560.512 215.915 560.272C215.915 560.152 215.963 560.044 216.059 559.948C216.155 559.828 216.263 559.732 216.383 559.66L216.995 558.976C217.259 558.856 217.463 558.748 217.607 558.652C217.751 558.532 217.919 558.412 218.111 558.292C218.447 558.172 218.771 558.076 219.083 558.004C219.395 557.908 219.671 557.86 219.911 557.86C220.295 557.788 220.607 557.728 220.847 557.68C221.111 557.608 221.447 557.644 221.855 557.788C222.071 557.812 222.287 557.848 222.503 557.896C222.743 557.92 222.959 557.98 223.151 558.076C223.343 558.124 223.487 558.16 223.583 558.184C223.679 558.208 223.799 558.244 223.943 558.292C224.183 558.34 224.411 558.424 224.627 558.544C224.867 558.664 225.083 558.784 225.275 558.904L225.527 558.976C225.551 558.976 225.551 559.072 225.527 559.264C225.527 559.432 225.503 559.612 225.455 559.804C225.407 559.924 225.383 560.056 225.383 560.2C225.383 560.32 225.383 560.5 225.383 560.74V561.388C225.383 561.436 225.347 561.496 225.275 561.568C225.251 561.592 225.227 561.604 225.203 561.604C225.083 561.604 224.975 561.592 224.879 561.568C224.783 561.52 224.675 561.496 224.555 561.496C224.387 561.448 224.183 561.388 223.943 561.316C223.703 561.22 223.499 561.172 223.331 561.172C223.019 561.172 222.719 561.172 222.431 561.172C222.167 561.172 221.891 561.208 221.603 561.28ZM235.666 561.28C235.378 561.328 235.114 561.4 234.874 561.496C234.634 561.592 234.406 561.772 234.19 562.036C233.854 562.372 233.614 562.756 233.47 563.188C233.35 563.62 233.29 564.112 233.29 564.664V565.564C233.41 565.804 233.494 566.068 233.542 566.356C233.59 566.644 233.734 566.896 233.974 567.112C234.094 567.328 234.25 567.544 234.442 567.76C234.634 567.976 234.826 568.216 235.018 568.48C235.138 568.552 235.294 568.612 235.486 568.66C235.678 568.684 235.834 568.756 235.954 568.876C236.266 568.996 236.626 569.068 237.034 569.092C237.442 569.092 237.814 569.092 238.15 569.092C238.318 569.068 238.486 569.032 238.654 568.984C238.822 568.912 239.086 568.876 239.446 568.876C239.566 568.828 239.662 568.876 239.734 569.02C239.806 569.14 239.878 569.296 239.95 569.488C240.022 569.608 240.094 569.764 240.166 569.956C240.238 570.124 240.298 570.28 240.346 570.424C240.394 570.52 240.442 570.616 240.49 570.712C240.562 570.784 240.598 570.892 240.598 571.036C240.55 571.06 240.49 571.096 240.418 571.144C240.346 571.216 240.262 571.276 240.166 571.324C240.118 571.444 240.01 571.516 239.842 571.54C239.674 571.588 239.542 571.66 239.446 571.756C238.582 572.188 237.706 572.404 236.818 572.404C236.602 572.404 236.398 572.404 236.206 572.404C236.014 572.428 235.774 572.428 235.486 572.404C235.27 572.404 234.982 572.344 234.622 572.224C234.478 572.224 234.262 572.224 233.974 572.224C233.686 572.224 233.47 572.212 233.326 572.188C233.206 572.164 233.086 572.116 232.966 572.044C232.87 571.972 232.762 571.912 232.642 571.864C232.522 571.816 232.402 571.768 232.282 571.72C232.162 571.672 232.042 571.624 231.922 571.576C231.658 571.456 231.418 571.264 231.202 571C231.01 570.76 230.794 570.532 230.554 570.316C230.338 570.124 230.098 569.872 229.834 569.56C229.594 569.224 229.45 568.948 229.402 568.732C229.306 568.468 229.174 568.18 229.006 567.868C228.862 567.556 228.778 567.232 228.754 566.896C228.706 566.752 228.682 566.632 228.682 566.536C228.682 566.44 228.682 566.344 228.682 566.248V564.664C228.682 564.112 228.694 563.62 228.718 563.188C228.766 562.732 228.898 562.288 229.114 561.856C229.234 561.616 229.342 561.352 229.438 561.064C229.558 560.776 229.738 560.512 229.978 560.272C229.978 560.152 230.026 560.044 230.122 559.948C230.218 559.828 230.326 559.732 230.446 559.66L231.058 558.976C231.322 558.856 231.526 558.748 231.67 558.652C231.814 558.532 231.982 558.412 232.174 558.292C232.51 558.172 232.834 558.076 233.146 558.004C233.458 557.908 233.734 557.86 233.974 557.86C234.358 557.788 234.67 557.728 234.91 557.68C235.174 557.608 235.51 557.644 235.918 557.788C236.134 557.812 236.35 557.848 236.566 557.896C236.806 557.92 237.022 557.98 237.214 558.076C237.406 558.124 237.55 558.16 237.646 558.184C237.742 558.208 237.862 558.244 238.006 558.292C238.246 558.34 238.474 558.424 238.69 558.544C238.93 558.664 239.146 558.784 239.338 558.904L239.59 558.976C239.614 558.976 239.614 559.072 239.59 559.264C239.59 559.432 239.566 559.612 239.518 559.804C239.47 559.924 239.446 560.056 239.446 560.2C239.446 560.32 239.446 560.5 239.446 560.74V561.388C239.446 561.436 239.41 561.496 239.338 561.568C239.314 561.592 239.29 561.604 239.266 561.604C239.146 561.604 239.038 561.592 238.942 561.568C238.846 561.52 238.738 561.496 238.618 561.496C238.45 561.448 238.246 561.388 238.006 561.316C237.766 561.22 237.562 561.172 237.394 561.172C237.082 561.172 236.782 561.172 236.494 561.172C236.23 561.172 235.954 561.208 235.666 561.28ZM246.596 567.868C246.644 568.348 246.656 568.78 246.632 569.164C246.608 569.548 246.572 569.908 246.524 570.244C246.524 570.388 246.488 570.496 246.416 570.568C246.176 570.616 245.9 570.664 245.588 570.712C245.276 570.736 244.988 570.736 244.724 570.712C244.508 570.688 244.292 570.7 244.076 570.748C243.86 570.772 243.704 570.784 243.608 570.784C243.608 570.64 243.596 570.508 243.572 570.388C243.548 570.268 243.548 570.1 243.572 569.884C243.596 569.692 243.596 569.488 243.572 569.272C243.572 569.056 243.572 568.852 243.572 568.66V566.896C243.548 566.344 243.536 565.78 243.536 565.204C243.536 564.628 243.524 564.244 243.5 564.052C243.476 563.836 243.476 563.62 243.5 563.404C243.548 563.188 243.572 562.972 243.572 562.756C243.548 562.42 243.536 562.084 243.536 561.748C243.56 561.388 243.572 561.04 243.572 560.704C243.572 560.416 243.56 560.044 243.536 559.588C243.512 559.108 243.524 558.724 243.572 558.436C243.764 558.388 244.004 558.364 244.292 558.364C244.58 558.364 244.892 558.352 245.228 558.328C245.492 558.304 245.756 558.292 246.02 558.292C246.284 558.292 246.476 558.292 246.596 558.292C246.644 558.292 246.656 558.364 246.632 558.508C246.632 558.628 246.632 558.712 246.632 558.76C246.608 559.36 246.608 559.888 246.632 560.344C246.656 560.776 246.644 561.232 246.596 561.712C246.62 562.192 246.62 562.612 246.596 562.972C246.596 563.308 246.572 563.716 246.524 564.196C246.524 564.268 246.524 564.46 246.524 564.772C246.524 565.084 246.536 565.444 246.56 565.852C246.584 566.236 246.596 566.62 246.596 567.004C246.596 567.364 246.596 567.652 246.596 567.868ZM243.536 555.988C243.512 555.868 243.5 555.688 243.5 555.448C243.524 555.208 243.536 554.956 243.536 554.692C243.536 554.572 243.524 554.464 243.5 554.368C243.5 554.272 243.5 554.176 243.5 554.08C243.5 554.032 243.5 553.996 243.5 553.972C243.524 553.948 243.536 553.912 243.536 553.864H246.128C246.248 553.864 246.32 553.876 246.344 553.9C246.368 553.9 246.38 553.96 246.38 554.08V556.42C246.236 556.444 246.008 556.456 245.696 556.456C245.408 556.456 245.108 556.456 244.796 556.456C244.484 556.456 244.196 556.456 243.932 556.456C243.692 556.432 243.572 556.396 243.572 556.348C243.548 556.276 243.536 556.156 243.536 555.988ZM252.84 557.932C253.008 557.884 253.212 557.812 253.452 557.716C253.692 557.62 253.932 557.572 254.172 557.572C254.484 557.572 254.772 557.572 255.036 557.572C255.3 557.548 255.588 557.536 255.9 557.536C256.14 557.536 256.368 557.548 256.584 557.572C256.824 557.572 257.04 557.608 257.232 557.68C257.28 557.68 257.34 557.692 257.412 557.716C257.484 557.74 257.58 557.812 257.7 557.932C257.94 558.004 258.168 558.124 258.384 558.292C258.6 558.46 258.792 558.664 258.96 558.904C259.152 559.144 259.32 559.396 259.464 559.66C259.632 559.9 259.776 560.14 259.896 560.38C260.016 560.572 260.088 560.824 260.112 561.136C260.16 561.448 260.22 561.7 260.292 561.892C260.292 562.228 260.304 562.552 260.328 562.864C260.376 563.176 260.4 563.5 260.4 563.836C260.4 564.388 260.388 564.916 260.364 565.42C260.34 565.924 260.328 566.452 260.328 567.004L260.256 568.192C260.256 568.288 260.208 568.456 260.112 568.696C260.016 568.936 259.956 569.116 259.932 569.236C259.86 569.476 259.764 569.764 259.644 570.1C259.524 570.412 259.44 570.592 259.392 570.64C259.272 570.76 259.188 570.868 259.14 570.964C259.092 571.06 259.044 571.156 258.996 571.252C258.972 571.348 258.924 571.432 258.852 571.504C258.804 571.576 258.708 571.648 258.564 571.72C258.444 571.768 258.3 571.84 258.132 571.936C257.964 572.056 257.808 572.164 257.664 572.26C257.544 572.308 257.484 572.344 257.484 572.368C257.484 572.416 257.4 572.464 257.232 572.512L256.584 572.656C256.296 572.704 256.056 572.716 255.864 572.692C255.696 572.668 255.504 572.656 255.288 572.656C254.616 572.656 253.944 572.524 253.272 572.26C253.056 572.26 252.84 572.212 252.624 572.116C252.432 572.02 252.288 571.912 252.192 571.792C252.072 571.696 251.952 571.588 251.832 571.468C251.712 571.372 251.592 571.264 251.472 571.144C251.28 570.928 251.124 570.712 251.004 570.496C250.884 570.28 250.764 570.052 250.644 569.812C250.524 569.548 250.392 569.284 250.248 569.02C250.104 568.732 250.008 568.42 249.96 568.084C249.912 567.532 249.864 567.028 249.816 566.572C249.792 566.116 249.78 565.66 249.78 565.204V563.728C249.756 563.68 249.744 563.584 249.744 563.44C249.744 563.296 249.756 563.2 249.78 563.152C249.78 563.032 249.78 562.912 249.78 562.792C249.804 562.648 249.828 562.516 249.852 562.396C249.876 562.204 249.888 562.012 249.888 561.82C249.888 561.628 249.948 561.436 250.068 561.244C250.044 561.292 250.056 561.256 250.104 561.136C250.176 560.992 250.248 560.848 250.32 560.704C250.392 560.536 250.452 560.392 250.5 560.272C250.548 560.152 250.572 560.104 250.572 560.128L250.824 559.66C250.896 559.588 250.968 559.504 251.04 559.408C251.112 559.312 251.208 559.204 251.328 559.084C251.472 558.964 251.652 558.808 251.868 558.616C252.108 558.424 252.432 558.196 252.84 557.932ZM255.468 563.908C255.372 563.908 255.276 563.956 255.18 564.052C255.108 564.148 255.06 564.232 255.036 564.304C254.868 564.664 254.784 564.964 254.784 565.204C254.784 565.852 255.012 566.284 255.468 566.5C255.588 566.5 255.684 566.464 255.756 566.392C255.852 566.296 255.9 566.2 255.9 566.104C255.9 565.864 255.924 565.588 255.972 565.276C256.044 564.964 256.02 564.64 255.9 564.304C255.78 564.184 255.708 564.088 255.684 564.016C255.66 563.944 255.588 563.908 255.468 563.908ZM263.54 558.724C263.54 558.652 263.528 558.58 263.504 558.508C263.48 558.436 263.48 558.364 263.504 558.292C263.528 558.292 263.564 558.292 263.612 558.292C263.684 558.268 263.744 558.256 263.792 558.256H264.008C264.128 558.232 264.248 558.232 264.368 558.256C264.488 558.256 264.608 558.244 264.728 558.22H265.808C265.856 558.22 265.904 558.244 265.952 558.292C266 558.34 266.036 558.376 266.06 558.4L266.132 558.724C266.132 558.796 266.144 558.88 266.168 558.976C266.216 559.168 266.24 559.372 266.24 559.588C266.264 559.66 266.276 559.732 266.276 559.804C266.276 559.948 266.288 560.02 266.312 560.02C266.408 559.924 266.48 559.828 266.528 559.732C266.576 559.612 266.636 559.528 266.708 559.48C266.78 559.408 266.828 559.36 266.852 559.336C266.9 559.312 266.936 559.288 266.96 559.264C267.008 559.24 267.068 559.216 267.14 559.192C267.212 559.144 267.32 559.072 267.464 558.976C267.68 558.856 267.872 558.76 268.04 558.688C268.232 558.616 268.52 558.484 268.904 558.292C268.976 558.268 269.096 558.232 269.264 558.184C269.456 558.136 269.66 558.1 269.876 558.076C270.092 558.028 270.308 558.004 270.524 558.004C270.764 557.98 270.968 557.968 271.136 557.968C271.4 557.992 271.616 558.028 271.784 558.076C271.952 558.1 272.18 558.136 272.468 558.184C272.588 558.208 272.78 558.232 273.044 558.256C273.332 558.28 273.524 558.316 273.62 558.364C274.22 558.7 274.7 558.988 275.06 559.228C275.42 559.468 275.732 559.792 275.996 560.2C276.044 560.248 276.116 560.308 276.212 560.38C276.308 560.428 276.416 560.512 276.536 560.632C276.656 560.752 276.764 560.92 276.86 561.136C276.98 561.328 277.04 561.448 277.04 561.496C277.136 561.904 277.244 562.24 277.364 562.504C277.484 562.744 277.556 563.068 277.58 563.476C277.604 563.668 277.664 563.884 277.76 564.124C277.856 564.34 277.904 564.568 277.904 564.808C277.904 565.048 277.916 565.324 277.94 565.636C277.964 565.924 277.952 566.344 277.904 566.896C277.904 567.064 277.904 567.22 277.904 567.364C277.928 567.508 277.94 567.652 277.94 567.796V569.452C277.94 569.62 277.94 569.776 277.94 569.92C277.94 570.064 277.928 570.208 277.904 570.352C277.904 570.544 277.904 570.712 277.904 570.856C277.928 571 277.94 571.168 277.94 571.36C277.94 571.408 277.94 571.456 277.94 571.504C277.94 571.576 277.916 571.624 277.868 571.648C277.82 571.672 277.748 571.684 277.652 571.684C277.58 571.684 277.52 571.684 277.472 571.684C277.256 571.684 277.052 571.684 276.86 571.684C276.668 571.708 276.464 571.708 276.248 571.684L275.168 571.576C275.072 571.552 274.94 571.552 274.772 571.576C274.604 571.6 274.496 571.564 274.448 571.468C274.424 570.916 274.412 570.532 274.412 570.316C274.436 570.076 274.448 569.86 274.448 569.668C274.448 569.548 274.436 569.404 274.412 569.236C274.388 569.044 274.364 568.792 274.34 568.48L274.448 566.572C274.448 566.332 274.436 566.152 274.412 566.032C274.412 565.888 274.4 565.78 274.376 565.708C274.376 565.612 274.364 565.504 274.34 565.384C274.34 565.264 274.34 565.072 274.34 564.808C274.34 564.376 274.256 563.944 274.088 563.512C273.944 563.08 273.764 562.648 273.548 562.216C273.428 561.976 273.272 561.76 273.08 561.568C272.888 561.376 272.636 561.208 272.324 561.064C272.276 561.04 272.216 561.016 272.144 560.992C272.072 560.968 272.012 560.956 271.964 560.956L271.136 560.884C270.728 560.86 270.308 560.932 269.876 561.1C269.444 561.268 269.18 561.436 269.084 561.604C268.916 561.892 268.784 562.108 268.688 562.252C268.592 562.396 268.496 562.54 268.4 562.684C268.376 562.756 268.34 562.888 268.292 563.08C268.244 563.248 268.184 563.464 268.112 563.728C268.064 563.968 268.016 564.232 267.968 564.52C267.92 564.784 267.896 565.024 267.896 565.24C267.896 565.408 267.896 565.576 267.896 565.744C267.896 565.888 267.884 566.032 267.86 566.176L267.788 567.184L267.572 568.552C267.572 568.792 267.572 569.056 267.572 569.344C267.572 569.608 267.56 569.86 267.536 570.1V570.928C267.392 571.024 267.272 571.072 267.176 571.072C266.912 571.12 266.72 571.168 266.6 571.216C266.504 571.264 266.312 571.276 266.024 571.252C265.76 571.228 265.412 571.228 264.98 571.252C264.548 571.3 264.2 571.3 263.936 571.252C263.672 571.204 263.54 571.168 263.54 571.144C263.54 571.144 263.54 571.084 263.54 570.964C263.54 570.868 263.54 570.724 263.54 570.532C263.564 570.316 263.576 570.1 263.576 569.884C263.576 569.644 263.576 569.416 263.576 569.2C263.6 568.984 263.612 568.816 263.612 568.696C263.612 568.264 263.6 567.904 263.576 567.616C263.552 567.328 263.54 566.968 263.54 566.536C263.54 566.176 263.528 565.888 263.504 565.672C263.504 565.432 263.492 565.132 263.468 564.772C263.468 564.58 263.48 564.34 263.504 564.052C263.528 563.74 263.54 563.416 263.54 563.08C263.54 562.672 263.528 562.276 263.504 561.892C263.504 561.508 263.504 561.22 263.504 561.028C263.48 560.62 263.468 560.236 263.468 559.876C263.468 559.492 263.492 559.108 263.54 558.724ZM288.737 569.164C288.977 568.948 289.157 568.72 289.277 568.48C289.397 568.216 289.457 567.904 289.457 567.544C289.457 567.328 289.397 567.112 289.277 566.896C289.157 566.68 288.977 566.512 288.737 566.392C288.161 566.176 287.573 565.96 286.973 565.744C286.373 565.528 285.725 565.36 285.029 565.24C284.693 565.12 284.333 565 283.949 564.88C283.589 564.76 283.169 564.64 282.689 564.52C281.729 564.064 281.129 563.296 280.889 562.216C280.889 561.76 280.889 561.316 280.889 560.884C280.889 560.452 280.997 560.008 281.213 559.552C281.357 559.216 281.477 558.976 281.573 558.832C281.693 558.664 281.801 558.544 281.897 558.472C282.017 558.376 282.125 558.304 282.221 558.256C282.341 558.184 282.473 558.088 282.617 557.968C283.169 557.752 283.637 557.596 284.021 557.5C284.429 557.38 284.921 557.26 285.497 557.14C285.737 557.02 285.965 556.948 286.181 556.924C286.421 556.9 286.649 556.888 286.865 556.888H288.809C289.169 556.888 289.505 556.888 289.817 556.888C290.129 556.864 290.453 556.864 290.789 556.888C291.317 556.912 291.809 556.96 292.265 557.032C292.721 557.104 293.249 557.2 293.849 557.32C294.401 557.392 294.797 557.476 295.037 557.572C294.989 557.692 294.941 557.884 294.893 558.148C294.869 558.412 294.845 558.676 294.821 558.94C294.821 558.988 294.809 559.036 294.785 559.084C294.785 559.108 294.785 559.144 294.785 559.192C294.785 559.312 294.749 559.384 294.677 559.408C294.629 559.432 294.569 559.432 294.497 559.408C294.449 559.384 294.389 559.36 294.317 559.336C293.909 559.288 293.489 559.264 293.057 559.264C292.625 559.264 292.193 559.276 291.761 559.3C291.329 559.324 290.897 559.372 290.465 559.444C290.033 559.516 289.613 559.576 289.205 559.624C289.013 559.672 288.833 559.72 288.665 559.768C288.497 559.792 288.329 559.828 288.161 559.876C287.969 559.924 287.789 559.984 287.621 560.056C287.477 560.128 287.309 560.224 287.117 560.344C286.877 560.632 286.709 560.896 286.613 561.136C286.493 561.424 286.433 561.712 286.433 562C286.385 562.12 286.385 562.312 286.433 562.576C286.481 562.816 286.577 563.02 286.721 563.188C287.033 563.524 287.321 563.74 287.585 563.836C288.041 563.956 288.473 564.064 288.881 564.16C289.313 564.256 289.697 564.352 290.033 564.448C290.153 564.448 290.285 564.472 290.429 564.52C290.573 564.568 290.705 564.592 290.825 564.592C291.305 564.64 291.737 564.724 292.121 564.844C292.505 564.94 292.925 565.072 293.381 565.24C293.717 565.36 294.053 565.492 294.389 565.636C294.749 565.756 295.097 565.924 295.433 566.14C295.697 566.5 295.889 566.812 296.009 567.076C296.153 567.34 296.285 567.652 296.405 568.012V568.948C296.405 569.188 296.357 569.416 296.261 569.632C296.165 569.848 296.057 570.016 295.937 570.136C295.697 570.76 295.229 571.3 294.533 571.756C294.077 572.092 293.597 572.368 293.093 572.584C292.613 572.824 292.085 572.992 291.509 573.088C290.693 573.352 289.865 573.496 289.025 573.52C288.209 573.568 287.345 573.532 286.433 573.412L284.453 573.232C284.237 573.208 283.985 573.172 283.697 573.124C283.409 573.076 283.121 573.004 282.833 572.908C282.425 572.788 282.125 572.716 281.933 572.692C281.765 572.692 281.669 572.668 281.645 572.62C281.621 572.572 281.597 572.524 281.573 572.476C281.549 572.452 281.537 572.428 281.537 572.404C281.417 572.14 281.345 571.888 281.321 571.648C281.297 571.432 281.225 571.156 281.105 570.82C281.057 570.7 281.021 570.592 280.997 570.496C280.973 570.4 280.949 570.304 280.925 570.208V570.1C280.925 570.052 280.913 570.016 280.889 569.992C280.889 569.968 280.901 569.932 280.925 569.884C281.045 569.884 281.141 569.896 281.213 569.92C281.309 569.944 281.417 569.956 281.537 569.956C281.825 570.028 282.149 570.1 282.509 570.172C282.893 570.244 283.193 570.28 283.409 570.28C283.625 570.28 283.865 570.292 284.129 570.316C284.393 570.316 284.693 570.316 285.029 570.316C285.317 570.34 285.617 570.352 285.929 570.352C286.241 570.352 286.553 570.292 286.865 570.172C286.937 570.1 287.057 570.028 287.225 569.956C287.393 569.884 287.573 569.812 287.765 569.74C287.957 569.644 288.137 569.56 288.305 569.488C288.497 569.392 288.641 569.284 288.737 569.164ZM321.208 571.864L320.956 571.9C320.836 571.924 320.752 571.924 320.704 571.9C320.68 571.9 320.572 571.9 320.38 571.9C320.356 571.9 320.284 571.912 320.164 571.936C320.044 571.96 319.912 571.984 319.768 572.008C319.624 572.032 319.468 572.032 319.3 572.008C319.132 572.008 319 571.984 318.904 571.936C318.784 571.936 318.7 571.924 318.652 571.9C318.604 571.876 318.52 571.864 318.4 571.864C318.28 571.768 318.208 571.624 318.184 571.432C318.184 571.24 318.184 571.084 318.184 570.964V570.064L317.896 570.46L317.248 571.072C317.008 571.24 316.804 571.372 316.636 571.468C316.492 571.588 316.312 571.708 316.096 571.828C315.736 572.044 315.34 572.188 314.908 572.26C314.5 572.332 314.116 572.368 313.756 572.368C313.396 572.368 313.012 572.296 312.604 572.152C312.22 572.008 311.872 571.876 311.56 571.756C311.464 571.732 311.368 571.684 311.272 571.612C311.2 571.564 311.128 571.516 311.056 571.468C310.912 571.348 310.744 571.228 310.552 571.108C310.384 570.988 310.24 570.868 310.12 570.748C310.048 570.7 309.976 570.652 309.904 570.604C309.856 570.532 309.784 570.472 309.688 570.424C309.568 570.352 309.46 570.232 309.364 570.064C309.244 569.8 309.088 569.548 308.896 569.308C308.728 569.044 308.584 568.744 308.464 568.408C308.392 568.144 308.296 567.892 308.176 567.652C308.056 567.412 307.996 567.184 307.996 566.968C307.996 566.848 307.984 566.644 307.96 566.356C307.936 566.068 307.924 565.864 307.924 565.744C307.924 565.528 307.924 565.36 307.924 565.24C307.948 565.12 307.96 564.94 307.96 564.7C307.96 564.58 307.972 564.46 307.996 564.34C308.044 564.196 308.092 564.016 308.14 563.8C308.188 563.536 308.224 563.26 308.248 562.972C308.272 562.66 308.308 562.408 308.356 562.216C308.524 561.904 308.632 561.712 308.68 561.64C308.752 561.568 308.812 561.436 308.86 561.244C308.908 561.1 308.968 560.92 309.04 560.704C309.136 560.464 309.268 560.284 309.436 560.164C309.508 560.116 309.616 560.032 309.76 559.912C309.904 559.792 310.048 559.66 310.192 559.516C310.36 559.372 310.504 559.252 310.624 559.156C310.744 559.036 310.828 558.976 310.876 558.976L311.524 558.688C311.716 558.616 311.932 558.568 312.172 558.544C312.412 558.496 312.64 558.472 312.856 558.472L313.972 558.436C314.092 558.436 314.224 558.436 314.368 558.436C314.536 558.436 314.644 558.448 314.692 558.472C314.812 558.472 314.932 558.508 315.052 558.58C315.172 558.652 315.292 558.688 315.412 558.688C315.532 558.688 315.676 558.736 315.844 558.832C316.036 558.904 316.192 559 316.312 559.12C316.552 559.216 316.732 559.336 316.852 559.48C316.996 559.6 317.128 559.72 317.248 559.84C317.368 559.96 317.476 560.08 317.572 560.2C317.692 560.296 317.812 560.404 317.932 560.524C317.932 560.596 317.98 560.656 318.076 560.704C318.124 560.728 318.16 560.752 318.184 560.776C318.232 560.728 318.256 560.632 318.256 560.488C318.28 560.344 318.328 560.212 318.4 560.092C318.424 559.756 318.436 559.456 318.436 559.192C318.46 558.904 318.484 558.712 318.508 558.616C318.484 558.52 318.496 558.388 318.544 558.22C318.592 558.028 318.676 557.956 318.796 558.004C318.844 557.98 318.952 557.98 319.12 558.004C319.288 558.028 319.48 558.064 319.696 558.112C319.912 558.136 320.128 558.16 320.344 558.184C320.584 558.208 320.788 558.22 320.956 558.22C320.98 558.22 320.992 558.28 320.992 558.4C320.992 558.52 320.98 558.616 320.956 558.688L321.172 562.144V566.032C321.172 566.104 321.16 566.176 321.136 566.248C321.136 566.32 321.136 566.392 321.136 566.464C321.16 566.68 321.172 566.908 321.172 567.148C321.172 567.364 321.172 567.592 321.172 567.832C321.196 568 321.196 568.18 321.172 568.372C321.172 568.54 321.172 568.72 321.172 568.912C321.172 569.056 321.172 569.26 321.172 569.524C321.196 569.764 321.208 570.016 321.208 570.28C321.208 570.544 321.208 570.796 321.208 571.036C321.208 571.3 321.208 571.516 321.208 571.684V571.864ZM316.564 566.428V566.32C316.564 566.176 316.588 565.864 316.636 565.384C316.684 564.88 316.576 564.268 316.312 563.548C316.24 563.356 316.132 563.152 315.988 562.936C315.844 562.72 315.616 562.552 315.304 562.432C315.136 562.384 314.98 562.336 314.836 562.288C314.692 562.216 314.536 562.192 314.368 562.216C314.2 562.264 313.984 562.372 313.72 562.54C313.48 562.708 313.276 562.912 313.108 563.152C312.988 563.272 312.916 563.404 312.892 563.548C312.868 563.692 312.844 563.86 312.82 564.052C312.748 564.364 312.688 564.604 312.64 564.772C312.616 564.94 312.604 565.156 312.604 565.42C312.604 565.9 312.736 566.32 313 566.68C313.288 567.04 313.468 567.28 313.54 567.4C313.612 567.472 313.672 567.52 313.72 567.544C313.792 567.544 313.888 567.604 314.008 567.724C314.248 567.844 314.476 567.868 314.692 567.796C314.908 567.7 315.148 567.592 315.412 567.472H315.628C315.844 567.352 316.024 567.232 316.168 567.112C316.312 566.992 316.444 566.812 316.564 566.572V566.428ZM327.735 561.712C327.759 561.76 327.771 561.88 327.771 562.072C327.771 562.264 327.771 562.408 327.771 562.504C327.723 562.624 327.699 562.744 327.699 562.864C327.699 562.96 327.699 563.068 327.699 563.188C327.699 563.332 327.711 563.608 327.735 564.016C327.759 564.4 327.771 564.676 327.771 564.844V565.636C327.771 565.852 327.771 566.068 327.771 566.284C327.795 566.5 327.807 566.716 327.807 566.932C327.807 567.1 327.795 567.268 327.771 567.436C327.747 567.58 327.747 567.736 327.771 567.904C327.771 568.048 327.783 568.192 327.807 568.336C327.831 568.456 327.843 568.588 327.843 568.732V572.008C327.843 572.128 327.855 572.248 327.879 572.368C327.927 572.488 327.915 572.536 327.843 572.512C327.603 572.512 327.327 572.536 327.015 572.584C326.703 572.656 326.415 572.692 326.151 572.692C325.935 572.692 325.743 572.68 325.575 572.656C325.431 572.632 325.227 572.56 324.963 572.44V571.972C324.843 571.516 324.771 571.108 324.747 570.748C324.747 570.364 324.747 570.004 324.747 569.668C324.747 569.404 324.747 569.164 324.747 568.948C324.747 568.708 324.771 568.468 324.819 568.228C324.819 568.108 324.795 568.012 324.747 567.94C324.747 567.916 324.735 567.856 324.711 567.76C324.711 567.64 324.711 567.52 324.711 567.4C324.711 567.28 324.711 567.172 324.711 567.076C324.711 566.956 324.711 566.872 324.711 566.824V565.312C324.711 565.024 324.699 564.736 324.675 564.448C324.675 564.16 324.699 563.872 324.747 563.584C324.771 563.56 324.783 563.452 324.783 563.26C324.807 563.044 324.831 562.816 324.855 562.576C324.879 562.312 324.891 562.072 324.891 561.856C324.915 561.616 324.927 561.472 324.927 561.424C324.951 561.04 324.951 560.656 324.927 560.272C324.927 559.888 324.939 559.516 324.963 559.156C324.963 558.46 324.951 557.788 324.927 557.14C324.927 556.468 324.939 555.796 324.963 555.124C324.963 554.692 324.963 554.272 324.963 553.864C324.963 553.432 324.951 553.012 324.927 552.604C324.903 552.388 324.891 552.22 324.891 552.1C324.915 551.98 324.927 551.872 324.927 551.776C324.951 551.656 324.963 551.536 324.963 551.416C324.987 551.296 324.987 551.116 324.963 550.876C324.963 550.636 324.975 550.408 324.999 550.192C325.023 549.952 325.035 549.724 325.035 549.508C325.035 549.268 325.023 549.064 324.999 548.896C324.999 548.728 324.999 548.524 324.999 548.284L325.179 548.104C325.419 548.104 325.683 548.116 325.971 548.14C326.259 548.164 326.511 548.164 326.727 548.14C326.919 548.116 327.063 548.104 327.159 548.104C327.255 548.104 327.399 548.104 327.591 548.104C327.711 548.104 327.807 548.14 327.879 548.212C327.927 549.004 327.927 549.784 327.879 550.552C327.831 551.32 327.807 552.124 327.807 552.964V555.484C327.783 556.348 327.747 557.152 327.699 557.896C327.675 558.64 327.663 559.372 327.663 560.092C327.663 560.356 327.675 560.632 327.699 560.92C327.723 561.184 327.735 561.448 327.735 561.712ZM338.694 569.164C338.934 568.948 339.114 568.72 339.234 568.48C339.354 568.216 339.414 567.904 339.414 567.544C339.414 567.328 339.354 567.112 339.234 566.896C339.114 566.68 338.934 566.512 338.694 566.392C338.118 566.176 337.53 565.96 336.93 565.744C336.33 565.528 335.682 565.36 334.986 565.24C334.65 565.12 334.29 565 333.906 564.88C333.546 564.76 333.126 564.64 332.646 564.52C331.686 564.064 331.086 563.296 330.846 562.216C330.846 561.76 330.846 561.316 330.846 560.884C330.846 560.452 330.954 560.008 331.17 559.552C331.314 559.216 331.434 558.976 331.53 558.832C331.65 558.664 331.758 558.544 331.854 558.472C331.974 558.376 332.082 558.304 332.178 558.256C332.298 558.184 332.43 558.088 332.574 557.968C333.126 557.752 333.594 557.596 333.978 557.5C334.386 557.38 334.878 557.26 335.454 557.14C335.694 557.02 335.922 556.948 336.138 556.924C336.378 556.9 336.606 556.888 336.822 556.888H338.766C339.126 556.888 339.462 556.888 339.774 556.888C340.086 556.864 340.41 556.864 340.746 556.888C341.274 556.912 341.766 556.96 342.222 557.032C342.678 557.104 343.206 557.2 343.806 557.32C344.358 557.392 344.754 557.476 344.994 557.572C344.946 557.692 344.898 557.884 344.85 558.148C344.826 558.412 344.802 558.676 344.778 558.94C344.778 558.988 344.766 559.036 344.742 559.084C344.742 559.108 344.742 559.144 344.742 559.192C344.742 559.312 344.706 559.384 344.634 559.408C344.586 559.432 344.526 559.432 344.454 559.408C344.406 559.384 344.346 559.36 344.274 559.336C343.866 559.288 343.446 559.264 343.014 559.264C342.582 559.264 342.15 559.276 341.718 559.3C341.286 559.324 340.854 559.372 340.422 559.444C339.99 559.516 339.57 559.576 339.162 559.624C338.97 559.672 338.79 559.72 338.622 559.768C338.454 559.792 338.286 559.828 338.118 559.876C337.926 559.924 337.746 559.984 337.578 560.056C337.434 560.128 337.266 560.224 337.074 560.344C336.834 560.632 336.666 560.896 336.57 561.136C336.45 561.424 336.39 561.712 336.39 562C336.342 562.12 336.342 562.312 336.39 562.576C336.438 562.816 336.534 563.02 336.678 563.188C336.99 563.524 337.278 563.74 337.542 563.836C337.998 563.956 338.43 564.064 338.838 564.16C339.27 564.256 339.654 564.352 339.99 564.448C340.11 564.448 340.242 564.472 340.386 564.52C340.53 564.568 340.662 564.592 340.782 564.592C341.262 564.64 341.694 564.724 342.078 564.844C342.462 564.94 342.882 565.072 343.338 565.24C343.674 565.36 344.01 565.492 344.346 565.636C344.706 565.756 345.054 565.924 345.39 566.14C345.654 566.5 345.846 566.812 345.966 567.076C346.11 567.34 346.242 567.652 346.362 568.012V568.948C346.362 569.188 346.314 569.416 346.218 569.632C346.122 569.848 346.014 570.016 345.894 570.136C345.654 570.76 345.186 571.3 344.49 571.756C344.034 572.092 343.554 572.368 343.05 572.584C342.57 572.824 342.042 572.992 341.466 573.088C340.65 573.352 339.822 573.496 338.982 573.52C338.166 573.568 337.302 573.532 336.39 573.412L334.41 573.232C334.194 573.208 333.942 573.172 333.654 573.124C333.366 573.076 333.078 573.004 332.79 572.908C332.382 572.788 332.082 572.716 331.89 572.692C331.722 572.692 331.626 572.668 331.602 572.62C331.578 572.572 331.554 572.524 331.53 572.476C331.506 572.452 331.494 572.428 331.494 572.404C331.374 572.14 331.302 571.888 331.278 571.648C331.254 571.432 331.182 571.156 331.062 570.82C331.014 570.7 330.978 570.592 330.954 570.496C330.93 570.4 330.906 570.304 330.882 570.208V570.1C330.882 570.052 330.87 570.016 330.846 569.992C330.846 569.968 330.858 569.932 330.882 569.884C331.002 569.884 331.098 569.896 331.17 569.92C331.266 569.944 331.374 569.956 331.494 569.956C331.782 570.028 332.106 570.1 332.466 570.172C332.85 570.244 333.15 570.28 333.366 570.28C333.582 570.28 333.822 570.292 334.086 570.316C334.35 570.316 334.65 570.316 334.986 570.316C335.274 570.34 335.574 570.352 335.886 570.352C336.198 570.352 336.51 570.292 336.822 570.172C336.894 570.1 337.014 570.028 337.182 569.956C337.35 569.884 337.53 569.812 337.722 569.74C337.914 569.644 338.094 569.56 338.262 569.488C338.454 569.392 338.598 569.284 338.694 569.164ZM365.009 566.32C365.033 566.368 365.069 566.452 365.117 566.572C365.165 566.668 365.213 566.728 365.261 566.752C365.381 566.752 365.453 566.704 365.477 566.608C365.525 566.488 365.609 566.356 365.729 566.212C366.041 565.588 366.305 565.06 366.521 564.628C366.761 564.172 367.037 563.656 367.349 563.08L368.033 561.424C368.129 561.256 368.261 561.028 368.429 560.74C368.621 560.428 368.741 560.188 368.789 560.02C368.837 559.876 368.873 559.768 368.897 559.696C368.945 559.624 368.993 559.504 369.041 559.336C369.041 559.312 369.065 559.24 369.113 559.12C369.185 559 369.257 558.88 369.329 558.76C369.401 558.64 369.461 558.532 369.509 558.436C369.581 558.316 369.629 558.232 369.653 558.184C370.133 558.304 370.565 558.436 370.949 558.58C371.333 558.7 371.753 558.88 372.209 559.12C372.089 559.336 371.993 559.516 371.921 559.66C371.873 559.78 371.825 559.912 371.777 560.056C371.633 560.344 371.453 560.644 371.237 560.956C371.045 561.244 370.925 561.436 370.877 561.532L370.229 563.08C370.037 563.44 369.821 563.8 369.581 564.16C369.557 564.208 369.521 564.28 369.473 564.376C369.449 564.448 369.413 564.508 369.365 564.556C369.245 564.748 369.101 565.024 368.933 565.384C368.765 565.744 368.573 566.128 368.357 566.536C368.165 566.92 367.973 567.292 367.781 567.652C367.613 567.988 367.469 568.228 367.349 568.372C367.157 568.732 366.989 569.044 366.845 569.308C366.725 569.572 366.581 569.884 366.413 570.244C366.389 570.364 366.341 570.484 366.269 570.604C366.221 570.7 366.173 570.808 366.125 570.928C366.077 571.048 366.029 571.168 365.981 571.288C365.933 571.408 365.849 571.528 365.729 571.648C365.681 571.672 365.573 571.696 365.405 571.72C365.237 571.744 365.057 571.768 364.865 571.792C364.673 571.816 364.493 571.828 364.325 571.828C364.157 571.852 364.037 571.852 363.965 571.828C363.917 571.804 363.857 571.744 363.785 571.648C363.713 571.552 363.641 571.444 363.569 571.324C363.521 571.228 363.473 571.12 363.425 571C363.377 570.904 363.341 570.844 363.317 570.82L362.705 569.992C362.633 569.872 362.489 569.62 362.273 569.236C362.081 568.828 361.853 568.456 361.589 568.12L360.869 566.752C360.797 566.584 360.689 566.368 360.545 566.104C360.401 565.816 360.269 565.6 360.149 565.456C360.053 565.336 359.981 565.204 359.933 565.06C359.909 564.916 359.837 564.712 359.717 564.448C359.597 564.328 359.453 564.088 359.285 563.728C359.117 563.344 358.913 563.032 358.673 562.792C358.625 562.72 358.541 562.588 358.421 562.396C358.301 562.204 358.181 562.036 358.061 561.892C357.941 561.628 357.809 561.376 357.665 561.136C357.521 560.896 357.353 560.608 357.161 560.272C357.185 560.248 357.209 560.212 357.233 560.164C357.257 560.14 357.329 560.08 357.449 559.984C357.593 559.864 357.749 559.732 357.917 559.588C358.085 559.444 358.337 559.3 358.673 559.156L359.933 558.184C359.981 558.184 360.029 558.196 360.077 558.22C360.149 558.244 360.209 558.268 360.257 558.292L360.365 558.4C360.677 558.712 360.893 559.036 361.013 559.372C361.157 559.708 361.361 560.044 361.625 560.38C361.697 560.5 361.781 560.668 361.877 560.884C361.997 561.1 362.105 561.328 362.201 561.568C362.321 561.808 362.441 562.036 362.561 562.252C362.681 562.444 362.777 562.6 362.849 562.72C363.233 563.224 363.605 563.824 363.965 564.52C364.349 565.216 364.697 565.816 365.009 566.32ZM377.518 567.868C377.566 568.348 377.578 568.78 377.554 569.164C377.53 569.548 377.494 569.908 377.446 570.244C377.446 570.388 377.41 570.496 377.338 570.568C377.098 570.616 376.822 570.664 376.51 570.712C376.198 570.736 375.91 570.736 375.646 570.712C375.43 570.688 375.214 570.7 374.998 570.748C374.782 570.772 374.626 570.784 374.53 570.784C374.53 570.64 374.518 570.508 374.494 570.388C374.47 570.268 374.47 570.1 374.494 569.884C374.518 569.692 374.518 569.488 374.494 569.272C374.494 569.056 374.494 568.852 374.494 568.66V566.896C374.47 566.344 374.458 565.78 374.458 565.204C374.458 564.628 374.446 564.244 374.422 564.052C374.398 563.836 374.398 563.62 374.422 563.404C374.47 563.188 374.494 562.972 374.494 562.756C374.47 562.42 374.458 562.084 374.458 561.748C374.482 561.388 374.494 561.04 374.494 560.704C374.494 560.416 374.482 560.044 374.458 559.588C374.434 559.108 374.446 558.724 374.494 558.436C374.686 558.388 374.926 558.364 375.214 558.364C375.502 558.364 375.814 558.352 376.15 558.328C376.414 558.304 376.678 558.292 376.942 558.292C377.206 558.292 377.398 558.292 377.518 558.292C377.566 558.292 377.578 558.364 377.554 558.508C377.554 558.628 377.554 558.712 377.554 558.76C377.53 559.36 377.53 559.888 377.554 560.344C377.578 560.776 377.566 561.232 377.518 561.712C377.542 562.192 377.542 562.612 377.518 562.972C377.518 563.308 377.494 563.716 377.446 564.196C377.446 564.268 377.446 564.46 377.446 564.772C377.446 565.084 377.458 565.444 377.482 565.852C377.506 566.236 377.518 566.62 377.518 567.004C377.518 567.364 377.518 567.652 377.518 567.868ZM374.458 555.988C374.434 555.868 374.422 555.688 374.422 555.448C374.446 555.208 374.458 554.956 374.458 554.692C374.458 554.572 374.446 554.464 374.422 554.368C374.422 554.272 374.422 554.176 374.422 554.08C374.422 554.032 374.422 553.996 374.422 553.972C374.446 553.948 374.458 553.912 374.458 553.864H377.05C377.17 553.864 377.242 553.876 377.266 553.9C377.29 553.9 377.302 553.96 377.302 554.08V556.42C377.158 556.444 376.93 556.456 376.618 556.456C376.33 556.456 376.03 556.456 375.718 556.456C375.406 556.456 375.118 556.456 374.854 556.456C374.614 556.432 374.494 556.396 374.494 556.348C374.47 556.276 374.458 556.156 374.458 555.988ZM390.926 558.364C390.95 557.788 390.998 557.116 391.07 556.348C391.142 555.556 391.214 554.872 391.286 554.296C391.238 553.936 391.238 553.576 391.286 553.216C391.334 552.832 391.346 552.46 391.322 552.1C391.322 551.956 391.322 551.812 391.322 551.668C391.346 551.5 391.358 551.344 391.358 551.2C391.478 550.624 391.538 550.036 391.538 549.436C391.538 548.836 391.598 548.176 391.718 547.456V547.024C392.198 547.144 392.642 547.252 393.05 547.348C393.482 547.42 393.926 547.456 394.382 547.456C394.262 547.816 394.19 548.176 394.166 548.536C394.142 548.896 394.13 549.244 394.13 549.58C394.13 550.276 394.094 550.972 394.022 551.668C393.974 552.34 393.95 553.024 393.95 553.72C393.95 553.864 393.938 554.02 393.914 554.188C393.89 554.332 393.878 554.476 393.878 554.62C393.902 554.812 393.902 555.052 393.878 555.34C393.878 555.628 393.878 555.928 393.878 556.24C393.878 556.552 393.878 556.852 393.878 557.14C393.902 557.428 393.938 557.668 393.986 557.86C393.914 558.436 393.89 559.024 393.914 559.624C393.962 560.2 393.974 560.776 393.95 561.352C393.902 561.76 393.89 562.156 393.914 562.54C393.938 562.9 393.95 563.284 393.95 563.692C393.95 564.1 393.95 564.508 393.95 564.916C393.974 565.324 393.986 565.732 393.986 566.14C393.986 566.548 393.95 567.04 393.878 567.616C393.806 568.168 393.782 568.648 393.806 569.056C393.806 569.632 393.782 570.136 393.734 570.568C393.71 571 393.698 571.456 393.698 571.936C393.698 572.152 393.638 572.284 393.518 572.332C393.398 572.404 393.206 572.44 392.942 572.44C392.606 572.488 392.306 572.5 392.042 572.476C391.778 572.452 391.478 572.44 391.142 572.44C390.902 572.44 390.758 572.392 390.71 572.296C390.686 572.2 390.674 572.104 390.674 572.008V571.36C390.65 571.336 390.626 571.3 390.602 571.252C390.578 571.204 390.554 571.168 390.53 571.144C390.506 571.144 390.482 571.132 390.458 571.108C390.338 571.228 390.17 571.312 389.954 571.36C389.738 571.408 389.522 571.492 389.306 571.612C388.946 571.852 388.538 572.02 388.082 572.116C387.65 572.212 387.194 572.26 386.714 572.26C386.378 572.26 386.078 572.248 385.814 572.224C385.574 572.224 385.346 572.176 385.13 572.08C385.01 572.08 384.926 572.032 384.878 571.936C384.854 571.864 384.782 571.828 384.662 571.828C384.182 571.588 383.762 571.336 383.402 571.072C383.042 570.832 382.694 570.544 382.358 570.208C381.998 569.848 381.722 569.488 381.53 569.128C381.362 568.768 381.158 568.348 380.918 567.868C380.822 567.532 380.75 567.196 380.702 566.86C380.678 566.5 380.606 566.152 380.486 565.816C380.486 565.336 380.498 564.88 380.522 564.448C380.57 563.992 380.702 563.596 380.918 563.26C381.038 562.66 381.266 562.132 381.602 561.676C381.938 561.22 382.334 560.824 382.79 560.488C383.03 560.248 383.306 560.056 383.618 559.912C383.954 559.768 384.302 559.636 384.662 559.516C384.902 559.516 385.166 559.516 385.454 559.516C385.766 559.492 386.042 559.42 386.282 559.3C386.618 559.3 386.918 559.312 387.182 559.336C387.47 559.336 387.794 559.396 388.154 559.516C388.25 559.636 388.394 559.72 388.586 559.768C388.778 559.816 388.934 559.9 389.054 560.02C389.27 560.14 389.498 560.26 389.738 560.38C389.978 560.476 390.218 560.572 390.458 560.668C390.578 560.572 390.638 560.428 390.638 560.236C390.638 560.02 390.698 559.78 390.818 559.516C390.818 559.396 390.83 559.24 390.854 559.048C390.902 558.856 390.926 558.628 390.926 558.364ZM386.714 562.792C386.258 563.032 385.91 563.404 385.67 563.908C385.454 564.388 385.346 564.856 385.346 565.312C385.346 565.576 385.382 565.78 385.454 565.924C385.526 566.068 385.562 566.248 385.562 566.464C385.562 566.824 385.67 567.124 385.886 567.364C386.102 567.604 386.378 567.856 386.714 568.12C387.002 568.36 387.398 568.36 387.902 568.12C388.118 567.856 388.358 567.604 388.622 567.364C388.91 567.1 389.054 566.74 389.054 566.284C389.174 565.804 389.198 565.384 389.126 565.024C389.054 564.664 388.958 564.304 388.838 563.944C388.718 563.608 388.502 563.332 388.19 563.116C387.878 562.9 387.542 562.792 387.182 562.792H386.714ZM407.641 564.088C407.641 564.208 407.581 564.328 407.461 564.448C407.389 564.52 407.281 564.568 407.137 564.592C406.993 564.616 406.861 564.628 406.741 564.628C406.573 564.676 406.369 564.7 406.129 564.7C405.889 564.7 405.685 564.7 405.517 564.7C405.181 564.7 404.929 564.712 404.761 564.736C404.593 564.736 404.317 564.76 403.933 564.808L401.773 564.988V565.42C401.773 565.684 401.809 565.948 401.881 566.212C401.953 566.452 402.085 566.704 402.277 566.968C402.397 567.16 402.541 567.34 402.709 567.508C402.877 567.676 403.045 567.784 403.213 567.832C403.357 567.88 403.489 567.928 403.609 567.976C403.729 568.024 403.837 568.072 403.933 568.12C404.053 568.144 404.161 568.144 404.257 568.12C404.905 568.12 405.373 568.048 405.661 567.904C405.973 567.76 406.345 567.58 406.777 567.364C406.873 567.364 406.969 567.316 407.065 567.22C407.185 567.124 407.269 567.064 407.317 567.04C407.437 566.992 407.605 566.872 407.821 566.68C408.061 566.488 408.241 566.368 408.361 566.32C408.433 566.368 408.457 566.536 408.433 566.824C408.409 567.088 408.421 567.34 408.469 567.58V567.976V568.696C408.349 568.84 408.253 568.948 408.181 569.02C408.133 569.068 408.085 569.116 408.037 569.164C408.013 569.212 407.965 569.272 407.893 569.344C407.821 569.416 407.713 569.524 407.569 569.668C407.137 570.1 406.681 570.388 406.201 570.532C405.937 570.676 405.649 570.784 405.337 570.856C405.025 570.904 404.773 570.964 404.581 571.036C404.461 571.06 404.353 571.072 404.257 571.072C404.161 571.096 404.065 571.108 403.969 571.108H403.681C403.225 571.108 402.781 571.096 402.349 571.072C401.917 571.072 401.461 570.952 400.981 570.712C400.813 570.736 400.573 570.688 400.261 570.568C399.973 570.448 399.781 570.328 399.685 570.208C399.421 570.064 399.181 569.884 398.965 569.668C398.773 569.452 398.557 569.26 398.317 569.092C397.981 568.852 397.741 568.6 397.597 568.336C397.453 568.072 397.321 567.796 397.201 567.508C397.081 567.292 396.973 567.052 396.877 566.788C396.781 566.524 396.685 566.26 396.589 565.996C396.589 565.732 396.577 565.48 396.553 565.24C396.553 565 396.553 564.76 396.553 564.52V563.188C396.553 562.756 396.637 562.24 396.805 561.64C396.997 561.04 397.225 560.524 397.489 560.092C397.561 559.996 397.645 559.9 397.741 559.804C397.813 559.708 397.897 559.612 397.993 559.516C398.113 559.42 398.233 559.312 398.353 559.192C398.425 559.168 398.497 559.132 398.569 559.084C398.665 559.036 398.797 558.964 398.965 558.868C399.037 558.82 399.121 558.736 399.217 558.616C399.337 558.496 399.493 558.412 399.685 558.364C399.949 558.268 400.201 558.172 400.441 558.076C400.681 557.956 400.861 557.896 400.981 557.896C401.149 557.896 401.449 557.908 401.881 557.932C402.337 557.956 402.769 557.98 403.177 558.004C403.393 558.028 403.573 558.064 403.717 558.112C403.861 558.16 403.969 558.184 404.041 558.184C404.233 558.208 404.389 558.232 404.509 558.256C404.653 558.28 404.797 558.316 404.941 558.364C405.373 558.508 405.685 558.664 405.877 558.832C406.093 558.976 406.273 559.132 406.417 559.3C406.513 559.42 406.597 559.564 406.669 559.732C406.765 559.876 406.861 560.008 406.957 560.128C407.077 560.272 407.185 560.476 407.281 560.74C407.401 560.98 407.485 561.22 407.533 561.46C407.581 561.652 407.617 561.904 407.641 562.216C407.665 562.528 407.677 562.804 407.677 563.044C407.677 563.284 407.665 563.464 407.641 563.584C407.641 563.704 407.641 563.872 407.641 564.088ZM404.545 562C404.545 561.952 404.545 561.868 404.545 561.748C404.545 561.604 404.521 561.508 404.473 561.46C404.281 561.148 404.005 560.968 403.645 560.92C403.309 560.848 403.009 560.836 402.745 560.884C402.577 560.932 402.469 560.992 402.421 561.064C402.373 561.136 402.301 561.244 402.205 561.388C402.157 561.436 402.121 561.484 402.097 561.532C402.073 561.58 402.037 561.628 401.989 561.676C401.941 561.724 401.905 561.796 401.881 561.892C401.881 561.964 401.869 562.036 401.845 562.108C401.797 562.228 401.773 562.312 401.773 562.36C401.773 562.408 401.797 562.528 401.845 562.72C401.941 562.768 402.121 562.816 402.385 562.864C402.673 562.888 402.961 562.9 403.249 562.9C403.561 562.9 403.849 562.888 404.113 562.864C404.401 562.816 404.593 562.768 404.689 562.72C404.713 562.696 404.689 562.636 404.617 562.54C404.569 562.42 404.545 562.24 404.545 562ZM413.926 557.932C414.094 557.884 414.298 557.812 414.538 557.716C414.778 557.62 415.018 557.572 415.258 557.572C415.57 557.572 415.858 557.572 416.122 557.572C416.386 557.548 416.674 557.536 416.986 557.536C417.226 557.536 417.454 557.548 417.67 557.572C417.91 557.572 418.126 557.608 418.318 557.68C418.366 557.68 418.426 557.692 418.498 557.716C418.57 557.74 418.666 557.812 418.786 557.932C419.026 558.004 419.254 558.124 419.47 558.292C419.686 558.46 419.878 558.664 420.046 558.904C420.238 559.144 420.406 559.396 420.55 559.66C420.718 559.9 420.862 560.14 420.982 560.38C421.102 560.572 421.174 560.824 421.198 561.136C421.246 561.448 421.306 561.7 421.378 561.892C421.378 562.228 421.39 562.552 421.414 562.864C421.462 563.176 421.486 563.5 421.486 563.836C421.486 564.388 421.474 564.916 421.45 565.42C421.426 565.924 421.414 566.452 421.414 567.004L421.342 568.192C421.342 568.288 421.294 568.456 421.198 568.696C421.102 568.936 421.042 569.116 421.018 569.236C420.946 569.476 420.85 569.764 420.73 570.1C420.61 570.412 420.526 570.592 420.478 570.64C420.358 570.76 420.274 570.868 420.226 570.964C420.178 571.06 420.13 571.156 420.082 571.252C420.058 571.348 420.01 571.432 419.938 571.504C419.89 571.576 419.794 571.648 419.65 571.72C419.53 571.768 419.386 571.84 419.218 571.936C419.05 572.056 418.894 572.164 418.75 572.26C418.63 572.308 418.57 572.344 418.57 572.368C418.57 572.416 418.486 572.464 418.318 572.512L417.67 572.656C417.382 572.704 417.142 572.716 416.95 572.692C416.782 572.668 416.59 572.656 416.374 572.656C415.702 572.656 415.03 572.524 414.358 572.26C414.142 572.26 413.926 572.212 413.71 572.116C413.518 572.02 413.374 571.912 413.278 571.792C413.158 571.696 413.038 571.588 412.918 571.468C412.798 571.372 412.678 571.264 412.558 571.144C412.366 570.928 412.21 570.712 412.09 570.496C411.97 570.28 411.85 570.052 411.73 569.812C411.61 569.548 411.478 569.284 411.334 569.02C411.19 568.732 411.094 568.42 411.046 568.084C410.998 567.532 410.95 567.028 410.902 566.572C410.878 566.116 410.866 565.66 410.866 565.204V563.728C410.842 563.68 410.83 563.584 410.83 563.44C410.83 563.296 410.842 563.2 410.866 563.152C410.866 563.032 410.866 562.912 410.866 562.792C410.89 562.648 410.914 562.516 410.938 562.396C410.962 562.204 410.974 562.012 410.974 561.82C410.974 561.628 411.034 561.436 411.154 561.244C411.13 561.292 411.142 561.256 411.19 561.136C411.262 560.992 411.334 560.848 411.406 560.704C411.478 560.536 411.538 560.392 411.586 560.272C411.634 560.152 411.658 560.104 411.658 560.128L411.91 559.66C411.982 559.588 412.054 559.504 412.126 559.408C412.198 559.312 412.294 559.204 412.414 559.084C412.558 558.964 412.738 558.808 412.954 558.616C413.194 558.424 413.518 558.196 413.926 557.932ZM416.554 563.908C416.458 563.908 416.362 563.956 416.266 564.052C416.194 564.148 416.146 564.232 416.122 564.304C415.954 564.664 415.87 564.964 415.87 565.204C415.87 565.852 416.098 566.284 416.554 566.5C416.674 566.5 416.77 566.464 416.842 566.392C416.938 566.296 416.986 566.2 416.986 566.104C416.986 565.864 417.01 565.588 417.058 565.276C417.13 564.964 417.106 564.64 416.986 564.304C416.866 564.184 416.794 564.088 416.77 564.016C416.746 563.944 416.674 563.908 416.554 563.908ZM431.43 566.824C431.382 567.4 431.322 567.892 431.25 568.3C431.202 568.708 431.178 569.14 431.178 569.596C431.178 570.076 431.13 570.496 431.034 570.856C430.938 571.216 430.83 571.576 430.71 571.936C430.734 572.032 430.71 572.164 430.638 572.332C430.566 572.5 430.53 572.644 430.53 572.764C430.41 573.052 430.29 573.328 430.17 573.592C430.05 573.856 429.966 574.132 429.918 574.42L429.09 576.112C428.97 576.472 428.85 576.772 428.73 577.012C428.61 577.252 428.418 577.492 428.154 577.732C428.034 577.948 427.902 578.128 427.758 578.272C427.638 578.44 427.47 578.644 427.254 578.884C427.134 579.004 426.966 579.16 426.75 579.352C426.534 579.544 426.306 579.688 426.066 579.784C425.898 579.952 425.718 580.06 425.526 580.108C425.334 580.18 425.166 580.288 425.022 580.432C424.878 580.552 424.662 580.636 424.374 580.684C424.11 580.732 423.882 580.78 423.69 580.828L422.322 581.044C421.986 581.164 421.686 581.212 421.422 581.188C421.134 581.188 420.81 581.152 420.45 581.08C420.402 581.032 420.258 580.996 420.018 580.972C419.778 580.924 419.514 580.9 419.226 580.9C418.938 580.9 418.686 580.852 418.47 580.756C418.086 580.708 417.726 580.624 417.39 580.504C417.054 580.408 416.754 580.264 416.49 580.072C416.442 580.048 416.394 580 416.346 579.928C416.298 579.88 416.286 579.844 416.31 579.82L416.922 579.028C417.09 578.836 417.222 578.632 417.318 578.416C417.414 578.2 417.57 577.996 417.786 577.804C417.834 577.852 417.966 577.912 418.182 577.984C418.374 578.08 418.506 578.152 418.578 578.2L419.118 578.416C419.358 578.536 419.646 578.56 419.982 578.488C420.294 578.44 420.63 578.416 420.99 578.416H421.458C421.818 578.296 422.178 578.212 422.538 578.164C422.874 578.116 423.21 577.9 423.546 577.516C423.738 577.324 423.894 577.18 424.014 577.084C424.158 576.988 424.326 576.832 424.518 576.616C424.686 576.448 424.902 576.124 425.166 575.644C425.286 575.38 425.394 575.092 425.49 574.78C425.61 574.468 425.73 574.144 425.85 573.808C425.97 573.448 426.042 573.1 426.066 572.764C426.114 572.428 426.198 572.152 426.318 571.936V569.344C426.438 568.432 426.462 567.568 426.39 566.752C426.342 565.912 426.318 565.084 426.318 564.268V561.496C426.318 561.04 426.318 560.632 426.318 560.272C426.342 559.912 426.318 559.564 426.246 559.228C426.246 559.108 426.186 559.024 426.066 558.976C425.97 558.904 425.922 558.772 425.922 558.58C426.042 558.388 426.15 558.28 426.246 558.256C426.366 558.232 426.462 558.208 426.534 558.184C426.654 558.16 426.93 558.172 427.362 558.22C427.794 558.244 428.19 558.256 428.55 558.256C428.598 558.256 428.658 558.256 428.73 558.256C428.826 558.256 428.922 558.244 429.018 558.22C429.114 558.22 429.21 558.208 429.306 558.184C429.666 558.184 429.978 558.16 430.242 558.112C430.506 558.04 430.818 558.004 431.178 558.004C431.178 558.604 431.214 559.144 431.286 559.624C431.382 560.08 431.43 560.548 431.43 561.028C431.382 561.292 431.382 561.532 431.43 561.748C431.478 562.156 431.49 562.66 431.466 563.26C431.466 563.836 431.49 564.472 431.538 565.168C431.538 565.408 431.514 565.72 431.466 566.104C431.418 566.464 431.406 566.704 431.43 566.824ZM429.81 553.648C430.098 553.624 430.29 553.624 430.386 553.648C430.482 553.648 430.59 553.648 430.71 553.648H430.962C431.082 554.032 431.118 554.404 431.07 554.764C431.046 555.124 431.094 555.484 431.214 555.844C431.094 555.964 430.95 556.048 430.782 556.096C430.638 556.12 430.458 556.132 430.242 556.132C430.122 556.132 429.966 556.144 429.774 556.168C429.582 556.168 429.426 556.168 429.306 556.168C428.97 556.168 428.718 556.156 428.55 556.132C428.406 556.108 428.154 556.12 427.794 556.168C427.578 556.192 427.302 556.216 426.966 556.24C426.654 556.264 426.366 556.228 426.102 556.132C426.102 555.964 426.102 555.844 426.102 555.772C426.126 555.676 426.138 555.604 426.138 555.556C426.138 555.508 426.138 555.46 426.138 555.412C426.138 555.364 426.138 555.28 426.138 555.16C426.09 554.992 426.066 554.824 426.066 554.656C426.066 554.488 426.066 554.308 426.066 554.116C426.066 554.068 426.066 554.008 426.066 553.936C426.066 553.864 426.09 553.792 426.138 553.72C426.21 553.696 426.33 553.672 426.498 553.648C426.666 553.624 426.774 553.612 426.822 553.612C427.086 553.612 427.278 553.6 427.398 553.576C427.518 553.552 427.71 553.54 427.974 553.54C428.166 553.54 428.454 553.552 428.838 553.576C429.222 553.576 429.546 553.6 429.81 553.648ZM437.516 557.932C437.684 557.884 437.888 557.812 438.128 557.716C438.368 557.62 438.608 557.572 438.848 557.572C439.16 557.572 439.448 557.572 439.712 557.572C439.976 557.548 440.264 557.536 440.576 557.536C440.816 557.536 441.044 557.548 441.26 557.572C441.5 557.572 441.716 557.608 441.908 557.68C441.956 557.68 442.016 557.692 442.088 557.716C442.16 557.74 442.256 557.812 442.376 557.932C442.616 558.004 442.844 558.124 443.06 558.292C443.276 558.46 443.468 558.664 443.636 558.904C443.828 559.144 443.996 559.396 444.14 559.66C444.308 559.9 444.452 560.14 444.572 560.38C444.692 560.572 444.764 560.824 444.788 561.136C444.836 561.448 444.896 561.7 444.968 561.892C444.968 562.228 444.98 562.552 445.004 562.864C445.052 563.176 445.076 563.5 445.076 563.836C445.076 564.388 445.064 564.916 445.04 565.42C445.016 565.924 445.004 566.452 445.004 567.004L444.932 568.192C444.932 568.288 444.884 568.456 444.788 568.696C444.692 568.936 444.632 569.116 444.608 569.236C444.536 569.476 444.44 569.764 444.32 570.1C444.2 570.412 444.116 570.592 444.068 570.64C443.948 570.76 443.864 570.868 443.816 570.964C443.768 571.06 443.72 571.156 443.672 571.252C443.648 571.348 443.6 571.432 443.528 571.504C443.48 571.576 443.384 571.648 443.24 571.72C443.12 571.768 442.976 571.84 442.808 571.936C442.64 572.056 442.484 572.164 442.34 572.26C442.22 572.308 442.16 572.344 442.16 572.368C442.16 572.416 442.076 572.464 441.908 572.512L441.26 572.656C440.972 572.704 440.732 572.716 440.54 572.692C440.372 572.668 440.18 572.656 439.964 572.656C439.292 572.656 438.62 572.524 437.948 572.26C437.732 572.26 437.516 572.212 437.3 572.116C437.108 572.02 436.964 571.912 436.868 571.792C436.748 571.696 436.628 571.588 436.508 571.468C436.388 571.372 436.268 571.264 436.148 571.144C435.956 570.928 435.8 570.712 435.68 570.496C435.56 570.28 435.44 570.052 435.32 569.812C435.2 569.548 435.068 569.284 434.924 569.02C434.78 568.732 434.684 568.42 434.636 568.084C434.588 567.532 434.54 567.028 434.492 566.572C434.468 566.116 434.456 565.66 434.456 565.204V563.728C434.432 563.68 434.42 563.584 434.42 563.44C434.42 563.296 434.432 563.2 434.456 563.152C434.456 563.032 434.456 562.912 434.456 562.792C434.48 562.648 434.504 562.516 434.528 562.396C434.552 562.204 434.564 562.012 434.564 561.82C434.564 561.628 434.624 561.436 434.744 561.244C434.72 561.292 434.732 561.256 434.78 561.136C434.852 560.992 434.924 560.848 434.996 560.704C435.068 560.536 435.128 560.392 435.176 560.272C435.224 560.152 435.248 560.104 435.248 560.128L435.5 559.66C435.572 559.588 435.644 559.504 435.716 559.408C435.788 559.312 435.884 559.204 436.004 559.084C436.148 558.964 436.328 558.808 436.544 558.616C436.784 558.424 437.108 558.196 437.516 557.932ZM440.144 563.908C440.048 563.908 439.952 563.956 439.856 564.052C439.784 564.148 439.736 564.232 439.712 564.304C439.544 564.664 439.46 564.964 439.46 565.204C439.46 565.852 439.688 566.284 440.144 566.5C440.264 566.5 440.36 566.464 440.432 566.392C440.528 566.296 440.576 566.2 440.576 566.104C440.576 565.864 440.6 565.588 440.648 565.276C440.72 564.964 440.696 564.64 440.576 564.304C440.456 564.184 440.384 564.088 440.36 564.016C440.336 563.944 440.264 563.908 440.144 563.908ZM454.408 561.28C454.12 561.328 453.856 561.4 453.616 561.496C453.376 561.592 453.148 561.772 452.932 562.036C452.596 562.372 452.356 562.756 452.212 563.188C452.092 563.62 452.032 564.112 452.032 564.664V565.564C452.152 565.804 452.236 566.068 452.284 566.356C452.332 566.644 452.476 566.896 452.716 567.112C452.836 567.328 452.992 567.544 453.184 567.76C453.376 567.976 453.568 568.216 453.76 568.48C453.88 568.552 454.036 568.612 454.228 568.66C454.42 568.684 454.576 568.756 454.696 568.876C455.008 568.996 455.368 569.068 455.776 569.092C456.184 569.092 456.556 569.092 456.892 569.092C457.06 569.068 457.228 569.032 457.396 568.984C457.564 568.912 457.828 568.876 458.188 568.876C458.308 568.828 458.404 568.876 458.476 569.02C458.548 569.14 458.62 569.296 458.692 569.488C458.764 569.608 458.836 569.764 458.908 569.956C458.98 570.124 459.04 570.28 459.088 570.424C459.136 570.52 459.184 570.616 459.232 570.712C459.304 570.784 459.34 570.892 459.34 571.036C459.292 571.06 459.232 571.096 459.16 571.144C459.088 571.216 459.004 571.276 458.908 571.324C458.86 571.444 458.752 571.516 458.584 571.54C458.416 571.588 458.284 571.66 458.188 571.756C457.324 572.188 456.448 572.404 455.56 572.404C455.344 572.404 455.14 572.404 454.948 572.404C454.756 572.428 454.516 572.428 454.228 572.404C454.012 572.404 453.724 572.344 453.364 572.224C453.22 572.224 453.004 572.224 452.716 572.224C452.428 572.224 452.212 572.212 452.068 572.188C451.948 572.164 451.828 572.116 451.708 572.044C451.612 571.972 451.504 571.912 451.384 571.864C451.264 571.816 451.144 571.768 451.024 571.72C450.904 571.672 450.784 571.624 450.664 571.576C450.4 571.456 450.16 571.264 449.944 571C449.752 570.76 449.536 570.532 449.296 570.316C449.08 570.124 448.84 569.872 448.576 569.56C448.336 569.224 448.192 568.948 448.144 568.732C448.048 568.468 447.916 568.18 447.748 567.868C447.604 567.556 447.52 567.232 447.496 566.896C447.448 566.752 447.424 566.632 447.424 566.536C447.424 566.44 447.424 566.344 447.424 566.248V564.664C447.424 564.112 447.436 563.62 447.46 563.188C447.508 562.732 447.64 562.288 447.856 561.856C447.976 561.616 448.084 561.352 448.18 561.064C448.3 560.776 448.48 560.512 448.72 560.272C448.72 560.152 448.768 560.044 448.864 559.948C448.96 559.828 449.068 559.732 449.188 559.66L449.8 558.976C450.064 558.856 450.268 558.748 450.412 558.652C450.556 558.532 450.724 558.412 450.916 558.292C451.252 558.172 451.576 558.076 451.888 558.004C452.2 557.908 452.476 557.86 452.716 557.86C453.1 557.788 453.412 557.728 453.652 557.68C453.916 557.608 454.252 557.644 454.66 557.788C454.876 557.812 455.092 557.848 455.308 557.896C455.548 557.92 455.764 557.98 455.956 558.076C456.148 558.124 456.292 558.16 456.388 558.184C456.484 558.208 456.604 558.244 456.748 558.292C456.988 558.34 457.216 558.424 457.432 558.544C457.672 558.664 457.888 558.784 458.08 558.904L458.332 558.976C458.356 558.976 458.356 559.072 458.332 559.264C458.332 559.432 458.308 559.612 458.26 559.804C458.212 559.924 458.188 560.056 458.188 560.2C458.188 560.32 458.188 560.5 458.188 560.74V561.388C458.188 561.436 458.152 561.496 458.08 561.568C458.056 561.592 458.032 561.604 458.008 561.604C457.888 561.604 457.78 561.592 457.684 561.568C457.588 561.52 457.48 561.496 457.36 561.496C457.192 561.448 456.988 561.388 456.748 561.316C456.508 561.22 456.304 561.172 456.136 561.172C455.824 561.172 455.524 561.172 455.236 561.172C454.972 561.172 454.696 561.208 454.408 561.28ZM469.37 569.164C469.61 568.948 469.79 568.72 469.91 568.48C470.03 568.216 470.09 567.904 470.09 567.544C470.09 567.328 470.03 567.112 469.91 566.896C469.79 566.68 469.61 566.512 469.37 566.392C468.794 566.176 468.206 565.96 467.606 565.744C467.006 565.528 466.358 565.36 465.662 565.24C465.326 565.12 464.966 565 464.582 564.88C464.222 564.76 463.802 564.64 463.322 564.52C462.362 564.064 461.762 563.296 461.522 562.216C461.522 561.76 461.522 561.316 461.522 560.884C461.522 560.452 461.63 560.008 461.846 559.552C461.99 559.216 462.11 558.976 462.206 558.832C462.326 558.664 462.434 558.544 462.53 558.472C462.65 558.376 462.758 558.304 462.854 558.256C462.974 558.184 463.106 558.088 463.25 557.968C463.802 557.752 464.27 557.596 464.654 557.5C465.062 557.38 465.554 557.26 466.13 557.14C466.37 557.02 466.598 556.948 466.814 556.924C467.054 556.9 467.282 556.888 467.498 556.888H469.442C469.802 556.888 470.138 556.888 470.45 556.888C470.762 556.864 471.086 556.864 471.422 556.888C471.95 556.912 472.442 556.96 472.898 557.032C473.354 557.104 473.882 557.2 474.482 557.32C475.034 557.392 475.43 557.476 475.67 557.572C475.622 557.692 475.574 557.884 475.526 558.148C475.502 558.412 475.478 558.676 475.454 558.94C475.454 558.988 475.442 559.036 475.418 559.084C475.418 559.108 475.418 559.144 475.418 559.192C475.418 559.312 475.382 559.384 475.31 559.408C475.262 559.432 475.202 559.432 475.13 559.408C475.082 559.384 475.022 559.36 474.95 559.336C474.542 559.288 474.122 559.264 473.69 559.264C473.258 559.264 472.826 559.276 472.394 559.3C471.962 559.324 471.53 559.372 471.098 559.444C470.666 559.516 470.246 559.576 469.838 559.624C469.646 559.672 469.466 559.72 469.298 559.768C469.13 559.792 468.962 559.828 468.794 559.876C468.602 559.924 468.422 559.984 468.254 560.056C468.11 560.128 467.942 560.224 467.75 560.344C467.51 560.632 467.342 560.896 467.246 561.136C467.126 561.424 467.066 561.712 467.066 562C467.018 562.12 467.018 562.312 467.066 562.576C467.114 562.816 467.21 563.02 467.354 563.188C467.666 563.524 467.954 563.74 468.218 563.836C468.674 563.956 469.106 564.064 469.514 564.16C469.946 564.256 470.33 564.352 470.666 564.448C470.786 564.448 470.918 564.472 471.062 564.52C471.206 564.568 471.338 564.592 471.458 564.592C471.938 564.64 472.37 564.724 472.754 564.844C473.138 564.94 473.558 565.072 474.014 565.24C474.35 565.36 474.686 565.492 475.022 565.636C475.382 565.756 475.73 565.924 476.066 566.14C476.33 566.5 476.522 566.812 476.642 567.076C476.786 567.34 476.918 567.652 477.038 568.012V568.948C477.038 569.188 476.99 569.416 476.894 569.632C476.798 569.848 476.69 570.016 476.57 570.136C476.33 570.76 475.862 571.3 475.166 571.756C474.71 572.092 474.23 572.368 473.726 572.584C473.246 572.824 472.718 572.992 472.142 573.088C471.326 573.352 470.498 573.496 469.658 573.52C468.842 573.568 467.978 573.532 467.066 573.412L465.086 573.232C464.87 573.208 464.618 573.172 464.33 573.124C464.042 573.076 463.754 573.004 463.466 572.908C463.058 572.788 462.758 572.716 462.566 572.692C462.398 572.692 462.302 572.668 462.278 572.62C462.254 572.572 462.23 572.524 462.206 572.476C462.182 572.452 462.17 572.428 462.17 572.404C462.05 572.14 461.978 571.888 461.954 571.648C461.93 571.432 461.858 571.156 461.738 570.82C461.69 570.7 461.654 570.592 461.63 570.496C461.606 570.4 461.582 570.304 461.558 570.208V570.1C461.558 570.052 461.546 570.016 461.522 569.992C461.522 569.968 461.534 569.932 461.558 569.884C461.678 569.884 461.774 569.896 461.846 569.92C461.942 569.944 462.05 569.956 462.17 569.956C462.458 570.028 462.782 570.1 463.142 570.172C463.526 570.244 463.826 570.28 464.042 570.28C464.258 570.28 464.498 570.292 464.762 570.316C465.026 570.316 465.326 570.316 465.662 570.316C465.95 570.34 466.25 570.352 466.562 570.352C466.874 570.352 467.186 570.292 467.498 570.172C467.57 570.1 467.69 570.028 467.858 569.956C468.026 569.884 468.206 569.812 468.398 569.74C468.59 569.644 468.77 569.56 468.938 569.488C469.13 569.392 469.274 569.284 469.37 569.164Z" fill="black"/>
</g>
<defs>
<clipPath id="clip0_0_1">
<rect width="639" height="596" fill="white"/>
</clipPath>
</defs>
</svg>
